<svg width="24" height="24" viewBox="0 0 24 24" fill="none" xmlns="http://www.w3.org/2000/svg">
<path d="M3.2969 5.2337C3.52232 4.27269 4.27268 3.52233 5.23369 3.29691C6.06652 3.10155 6.93326 3.10155 7.76609 3.29691C8.7271 3.52233 9.47746 4.27269 9.70288 5.2337C9.89824 6.06653 9.89824 6.93327 9.70288 7.7661C9.47746 8.72711 8.7271 9.47747 7.76609 9.70289C6.93326 9.89825 6.06652 9.89825 5.23369 9.70289C4.27268 9.47747 3.52232 8.72711 3.2969 7.7661C3.10155 6.93327 3.10155 6.06653 3.2969 5.2337Z" stroke="white"/>
<path d="M3.2969 15.9329C3.52232 14.9719 4.27268 14.2215 5.23369 13.9961C6.06652 13.8008 6.93326 13.8008 7.76609 13.9961C8.7271 14.2215 9.47746 14.9719 9.70288 15.9329C9.89824 16.7657 9.89824 17.6325 9.70288 18.4653C9.47746 19.4263 8.7271 20.1767 7.76609 20.4021C6.93326 20.5974 6.06652 20.5974 5.23369 20.4021C4.27268 20.1767 3.52232 19.4263 3.2969 18.4653C3.10155 17.6325 3.10155 16.7657 3.2969 15.9329Z" stroke="#54F1FF"/>
<path d="M13.9961 5.2337C14.2215 4.27269 14.9719 3.52233 15.9329 3.29691C16.7657 3.10155 17.6325 3.10155 18.4653 3.29691C19.4263 3.52233 20.1767 4.27269 20.4021 5.2337C20.5974 6.06653 20.5974 6.93327 20.4021 7.7661C20.1767 8.72711 19.4263 9.47747 18.4653 9.70289C17.6325 9.89825 16.7657 9.89825 15.9329 9.70289C14.9719 9.47747 14.2215 8.72711 13.9961 7.7661C13.8008 6.93327 13.8008 6.06653 13.9961 5.2337Z" stroke="white"/>
<path d="M13.9961 15.9329C14.2215 14.9719 14.9719 14.2215 15.9329 13.9961C16.7657 13.8008 17.6325 13.8008 18.4653 13.9961C19.4263 14.2215 20.1767 14.9719 20.4021 15.9329C20.5974 16.7657 20.5974 17.6325 20.4021 18.4653C20.1767 19.4263 19.4263 20.1767 18.4653 20.4021C17.6325 20.5974 16.7657 20.5974 15.9329 20.4021C14.9719 20.1767 14.2215 19.4263 13.9961 18.4653C13.8008 17.6325 13.8008 16.7657 13.9961 15.9329Z" stroke="white"/>
</svg>
