<svg width="319" height="100" viewBox="0 0 319 100" fill="none" xmlns="http://www.w3.org/2000/svg">
<rect width="100" height="100" rx="30" fill="url(#paint0_linear_4249_159)"/>
<rect width="100" height="100" rx="30" fill="#5C64F7"/>
<path d="M67.9385 55.7363C68.5411 55.1955 69.4997 55.6229 69.5 56.4326V68.3936C69.5 72.129 66.4718 75.1572 62.7363 75.1572C62.5496 75.1572 62.3984 75.0061 62.3984 74.8193V61.1592C62.3984 60.8754 62.5185 60.6047 62.7295 60.415L67.9385 55.7363ZM59.0947 24.8428C59.3599 24.8428 59.6142 24.9483 59.8018 25.1357L69.207 34.541C69.3945 34.7285 69.5 34.9829 69.5 35.248V47.7559C69.5 48.0355 69.3825 48.3028 69.1768 48.4922L59.7871 57.1338C59.6079 57.2987 59.3744 57.3933 59.1309 57.3984L51.3818 57.5615C50.8217 57.5731 50.3615 57.1228 50.3613 56.5625V49.1943C50.3615 48.6422 50.8091 48.1943 51.3613 48.1943H55.3984C55.713 48.1942 56.0094 48.0466 56.1982 47.7949L59.3096 43.6465C59.4392 43.4735 59.5087 43.263 59.5088 43.0469V39.4609C59.5088 39.1959 59.4041 38.9414 59.2168 38.7539L56.1914 35.7285C56.004 35.5411 55.7494 35.4357 55.4844 35.4355H42.5742C42.0219 35.4355 41.5742 35.8833 41.5742 36.4355V51.6855L49.707 59.8184C49.8945 60.0059 50 60.2602 50 60.5254V72.7432C50 73.6341 48.9229 74.0802 48.293 73.4502L41.7471 66.9043C41.5596 66.7168 41.4542 66.4624 41.4541 66.1973V51.5654L30.793 40.9043C30.6055 40.7168 30.5 40.4624 30.5 40.1973V25.8428C30.5 25.2905 30.9477 24.8428 31.5 24.8428H59.0947Z" fill="white"/>
<path d="M318.235 61.1167C318.235 62.2111 318.022 63.2388 317.595 64.1997C317.194 65.1606 316.634 66.0015 315.913 66.7222C315.219 67.4162 314.392 67.9767 313.431 68.4038C312.496 68.8042 311.482 69.0044 310.388 69.0044H289.207C288.139 69.0044 287.125 68.8042 286.164 68.4038C285.203 67.9767 284.362 67.4162 283.642 66.7222C282.948 66.0015 282.387 65.1606 281.96 64.1997C281.56 63.2388 281.359 62.2111 281.359 61.1167V34.2505C281.359 33.1561 281.56 32.1284 281.96 31.1675C282.387 30.2065 282.948 29.3791 283.642 28.6851C284.362 27.9644 285.203 27.4038 286.164 27.0034C287.125 26.5763 288.139 26.3628 289.207 26.3628H310.388C311.482 26.3628 312.496 26.5763 313.431 27.0034C314.392 27.4038 315.219 27.9644 315.913 28.6851C316.634 29.3791 317.194 30.2065 317.595 31.1675C318.022 32.1284 318.235 33.1561 318.235 34.2505V61.1167ZM289.207 34.2505V61.1167H310.388V34.2505H289.207Z" fill="#0A0A0A"/>
<path d="M267.386 69.0044H259.498V26.3628H267.386V69.0044Z" fill="#0A0A0A"/>
<path d="M245.524 69.0044H237.637V26.3628H245.524V69.0044Z" fill="#0A0A0A"/>
<path d="M227.866 26.3628L212.371 47.1831L228.587 69.0044H219.058L207.606 53.5894L196.115 69.0044H186.586L202.842 47.1831L187.347 26.3628H196.836L207.606 40.7769L218.337 26.3628H227.866Z" fill="#0A0A0A"/>
<path d="M177.138 69.0044H169.25V26.3628H177.138V69.0044Z" fill="#0A0A0A"/>
<path d="M155.717 61.5327C155.717 62.6271 155.503 63.6548 155.076 64.6157C154.676 65.5767 154.115 66.4175 153.395 67.1382C152.701 67.8322 151.873 68.3927 150.912 68.8198C149.951 69.2202 148.924 69.4204 147.829 69.4204H125.848V83.4204V86.6372H118V26.7788H125.848V33.9858C125.928 32.9715 126.195 32.0373 126.648 31.1831C127.102 30.3022 127.676 29.5415 128.37 28.9009C129.064 28.2336 129.865 27.7131 130.772 27.3394C131.707 26.9657 132.694 26.7788 133.735 26.7788H147.829C148.924 26.7788 149.951 26.9924 150.912 27.4194C151.873 27.8198 152.701 28.3804 153.395 29.1011C154.115 29.7951 154.676 30.6226 155.076 31.5835C155.503 32.5444 155.717 33.5721 155.717 34.6665V61.5327ZM147.829 61.5327V34.6665H125.848V61.5327H147.829Z" fill="#0A0A0A"/>
<path d="M131.961 81.2769C131.961 81.1167 131.99 80.9663 132.049 80.8257C132.111 80.6851 132.193 80.564 132.295 80.4624C132.4 80.3569 132.523 80.2749 132.664 80.2163C132.805 80.1538 132.953 80.1226 133.109 80.1226H136.326V77.7202H137.48V86.3628H136.326V85.3081C136.314 85.4526 136.275 85.5894 136.209 85.7183C136.143 85.8472 136.057 85.9604 135.951 86.0581C135.85 86.1519 135.732 86.2261 135.6 86.2808C135.467 86.3354 135.326 86.3628 135.178 86.3628H133.109C132.953 86.3628 132.805 86.3335 132.664 86.2749C132.523 86.2124 132.4 86.1304 132.295 86.0288C132.193 85.9233 132.111 85.8003 132.049 85.6597C131.99 85.519 131.961 85.3687 131.961 85.2085V81.2769ZM133.109 85.2085H136.326V81.2769H133.109V85.2085ZM153.082 83.8315H148.951V85.2085H153.082V86.3628H148.951C148.795 86.3628 148.646 86.3335 148.505 86.2749C148.365 86.2124 148.242 86.1304 148.136 86.0288C148.035 85.9233 147.953 85.8003 147.89 85.6597C147.832 85.519 147.802 85.3687 147.802 85.2085V81.2769C147.802 81.1167 147.832 80.9663 147.89 80.8257C147.953 80.6851 148.035 80.564 148.136 80.4624C148.242 80.3569 148.365 80.2749 148.505 80.2163C148.646 80.1538 148.795 80.1226 148.951 80.1226H151.927C152.087 80.1226 152.238 80.1538 152.379 80.2163C152.519 80.2749 152.64 80.3569 152.742 80.4624C152.847 80.564 152.929 80.6851 152.988 80.8257C153.05 80.9663 153.082 81.1167 153.082 81.2769V83.8315ZM148.951 81.2769V82.6772H151.927V81.2769H148.951ZM167.177 85.2085V83.7612H164.441C164.28 83.7612 164.13 83.7319 163.989 83.6733C163.849 83.6108 163.726 83.5288 163.62 83.4272C163.519 83.3218 163.437 83.1987 163.374 83.0581C163.316 82.9175 163.286 82.7671 163.286 82.6069V81.2769C163.286 81.1167 163.316 80.9663 163.374 80.8257C163.437 80.6851 163.519 80.564 163.62 80.4624C163.726 80.3569 163.849 80.2749 163.989 80.2163C164.13 80.1538 164.28 80.1226 164.441 80.1226H168.091V81.2769H164.441V82.6069H167.177C167.337 82.6069 167.486 82.6382 167.622 82.7007C167.763 82.7593 167.886 82.8413 167.991 82.9468C168.097 83.0483 168.179 83.1694 168.237 83.3101C168.3 83.4507 168.331 83.6011 168.331 83.7612V85.2085C168.331 85.3687 168.3 85.519 168.237 85.6597C168.179 85.8003 168.097 85.9233 167.991 86.0288C167.886 86.1304 167.763 86.2124 167.622 86.2749C167.486 86.3335 167.337 86.3628 167.177 86.3628H163.286V85.2085H167.177ZM179.749 80.1226V86.3628H178.595V80.1226H179.749ZM178.536 77.7202H179.807V78.9214H178.536V77.7202ZM190.135 81.2769C190.135 81.1167 190.164 80.9663 190.223 80.8257C190.286 80.6851 190.368 80.564 190.469 80.4624C190.575 80.3569 190.698 80.2749 190.838 80.2163C190.979 80.1538 191.127 80.1226 191.284 80.1226H193.352C193.504 80.1226 193.649 80.1519 193.786 80.2104C193.922 80.2651 194.041 80.3433 194.143 80.4448C194.248 80.5425 194.332 80.6597 194.395 80.7964C194.461 80.9292 194.496 81.0718 194.5 81.2241V80.1226H195.655V87.728C195.655 87.8882 195.623 88.0386 195.561 88.1792C195.502 88.3198 195.42 88.4409 195.315 88.5425C195.213 88.6479 195.092 88.73 194.952 88.7886C194.811 88.8511 194.661 88.8823 194.5 88.8823H190.856V87.728H194.5V86.1226H191.284C191.127 86.1226 190.979 86.0933 190.838 86.0347C190.698 85.9722 190.575 85.8901 190.469 85.7886C190.368 85.6831 190.286 85.5601 190.223 85.4194C190.164 85.2788 190.135 85.1284 190.135 84.9683V81.2769ZM194.5 84.9683V81.2769H191.284V84.9683H194.5ZM211.496 86.3628H210.342V81.2769H207.125V86.3628H205.977V80.1226H207.125V81.2241C207.133 81.0718 207.168 80.9292 207.23 80.7964C207.293 80.6597 207.375 80.5425 207.477 80.4448C207.582 80.3433 207.703 80.2651 207.84 80.2104C207.977 80.1519 208.123 80.1226 208.279 80.1226H210.342C210.502 80.1226 210.652 80.1538 210.793 80.2163C210.934 80.2749 211.055 80.3569 211.156 80.4624C211.262 80.564 211.344 80.6851 211.402 80.8257C211.465 80.9663 211.496 81.1167 211.496 81.2769V86.3628ZM233.816 83.6382C233.816 83.478 233.845 83.3296 233.904 83.1929C233.966 83.0522 234.048 82.9292 234.15 82.8237C234.255 82.7183 234.378 82.6362 234.519 82.5776C234.659 82.5151 234.808 82.4839 234.964 82.4839H237.941V81.2769H234.173V80.1226H237.941C238.101 80.1226 238.251 80.1538 238.392 80.2163C238.532 80.2749 238.654 80.3569 238.755 80.4624C238.861 80.564 238.943 80.6851 239.001 80.8257C239.064 80.9663 239.095 81.1167 239.095 81.2769V86.3628H237.941V85.3081C237.929 85.4526 237.89 85.5894 237.823 85.7183C237.757 85.8472 237.671 85.9604 237.566 86.0581C237.464 86.1519 237.347 86.2261 237.214 86.2808C237.081 86.3354 236.941 86.3628 236.792 86.3628H234.964C234.808 86.3628 234.659 86.3335 234.519 86.2749C234.378 86.2124 234.255 86.1304 234.15 86.0288C234.048 85.9233 233.966 85.8003 233.904 85.6597C233.845 85.519 233.816 85.3687 233.816 85.2085V83.6382ZM234.964 85.2085H237.941V83.6382H234.964V85.2085ZM249.423 81.2769C249.423 81.1167 249.452 80.9663 249.511 80.8257C249.573 80.6851 249.655 80.564 249.757 80.4624C249.862 80.3569 249.985 80.2749 250.126 80.2163C250.266 80.1538 250.415 80.1226 250.571 80.1226H252.639C252.792 80.1226 252.936 80.1519 253.073 80.2104C253.21 80.2651 253.329 80.3433 253.43 80.4448C253.536 80.5425 253.62 80.6597 253.682 80.7964C253.749 80.9292 253.784 81.0718 253.788 81.2241V80.1226H254.942V87.728C254.942 87.8882 254.911 88.0386 254.848 88.1792C254.79 88.3198 254.708 88.4409 254.602 88.5425C254.501 88.6479 254.38 88.73 254.239 88.7886C254.098 88.8511 253.948 88.8823 253.788 88.8823H250.143V87.728H253.788V86.1226H250.571C250.415 86.1226 250.266 86.0933 250.126 86.0347C249.985 85.9722 249.862 85.8901 249.757 85.7886C249.655 85.6831 249.573 85.5601 249.511 85.4194C249.452 85.2788 249.423 85.1284 249.423 84.9683V81.2769ZM253.788 84.9683V81.2769H250.571V84.9683H253.788ZM270.543 83.8315H266.412V85.2085H270.543V86.3628H266.412C266.256 86.3628 266.108 86.3335 265.967 86.2749C265.827 86.2124 265.704 86.1304 265.598 86.0288C265.496 85.9233 265.414 85.8003 265.352 85.6597C265.293 85.519 265.264 85.3687 265.264 85.2085V81.2769C265.264 81.1167 265.293 80.9663 265.352 80.8257C265.414 80.6851 265.496 80.564 265.598 80.4624C265.704 80.3569 265.827 80.2749 265.967 80.2163C266.108 80.1538 266.256 80.1226 266.412 80.1226H269.389C269.549 80.1226 269.7 80.1538 269.84 80.2163C269.981 80.2749 270.102 80.3569 270.204 80.4624C270.309 80.564 270.391 80.6851 270.45 80.8257C270.512 80.9663 270.543 81.1167 270.543 81.2769V83.8315ZM266.412 81.2769V82.6772H269.389V81.2769H266.412ZM286.391 86.3628H285.236V81.2769H282.02V86.3628H280.871V80.1226H282.02V81.2241C282.027 81.0718 282.062 80.9292 282.125 80.7964C282.188 80.6597 282.27 80.5425 282.371 80.4448C282.477 80.3433 282.598 80.2651 282.734 80.2104C282.871 80.1519 283.018 80.1226 283.174 80.1226H285.236C285.396 80.1226 285.547 80.1538 285.688 80.2163C285.828 80.2749 285.949 80.3569 286.051 80.4624C286.156 80.564 286.238 80.6851 286.297 80.8257C286.359 80.9663 286.391 81.1167 286.391 81.2769V86.3628ZM297.861 81.2769V85.2085H300.837V84.1538H301.992V85.2085C301.992 85.3687 301.961 85.519 301.898 85.6597C301.839 85.8003 301.757 85.9233 301.652 86.0288C301.55 86.1304 301.429 86.2124 301.289 86.2749C301.148 86.3335 300.998 86.3628 300.837 86.3628H297.861C297.705 86.3628 297.556 86.3335 297.416 86.2749C297.275 86.2124 297.152 86.1304 297.046 86.0288C296.945 85.9233 296.863 85.8003 296.8 85.6597C296.742 85.519 296.712 85.3687 296.712 85.2085V81.2769C296.712 81.1167 296.742 80.9663 296.8 80.8257C296.863 80.6851 296.945 80.564 297.046 80.4624C297.152 80.3569 297.275 80.2749 297.416 80.2163C297.556 80.1538 297.705 80.1226 297.861 80.1226H300.837C300.998 80.1226 301.148 80.1538 301.289 80.2163C301.429 80.2749 301.55 80.3569 301.652 80.4624C301.757 80.564 301.839 80.6851 301.898 80.8257C301.961 80.9663 301.992 81.1167 301.992 81.2769V82.3315H300.837V81.2769H297.861ZM312.741 88.8823L314.048 85.8003L311.599 80.1226H312.812L314.634 84.4175L316.456 80.1226H317.669L313.89 88.8823H312.741Z" fill="url(#paint1_linear_4249_159)"/>
<rect x="238" y="13.3628" width="8" height="8" fill="#5C64F7"/>
<rect x="259" y="13.3628" width="8" height="8" fill="#5C64F7"/>
<rect x="169" y="13.3628" width="8" height="8" fill="#5C64F7"/>
<defs>
<linearGradient id="paint0_linear_4249_159" x1="1.10489e-06" y1="5.70491" x2="86" y2="90" gradientUnits="userSpaceOnUse">
<stop stop-color="#5C64F7"/>
<stop offset="1" stop-color="#A36BFF"/>
</linearGradient>
<linearGradient id="paint1_linear_4249_159" x1="158.5" y1="78" x2="157.833" y2="92.718" gradientUnits="userSpaceOnUse">
<stop stop-color="#5C64F7"/>
<stop offset="1" stop-color="#A36BFF"/>
</linearGradient>
</defs>
</svg>
